<?xml version="1.0" encoding="utf-8"?>
<!-- Generator: Adobe Illustrator 23.0.6, SVG Export Plug-In . SVG Version: 6.00 Build 0)  -->
<svg version="1.1" id="圖層_1" xmlns="http://www.w3.org/2000/svg" xmlns:xlink="http://www.w3.org/1999/xlink" x="0px" y="0px"
	 viewBox="0 0 200 200" style="enable-background:new 0 0 200 200;" xml:space="preserve">
<style type="text/css">
	.st0{fill:#FFFFFF;}
</style>
<path class="st0" d="M124.7,101.5c0,11.9-2.5,22.5-7.6,31.8c-4.9,9.2-12.4,16.8-21.5,21.8c-9.3,5.2-20,7.9-32,7.9
	c-8.5,0-16.9-1.7-24.7-5c-7.6-3.1-14.5-7.7-20.3-13.4C12.8,138.8,8.2,132,5,124.5c-6.7-15.6-6.7-33.3,0-49
	C15.1,52.1,38.2,37,63.6,37c16.5,0,30.8,5.5,42.6,16.5L89,69.9c-6.8-6.5-15.2-9.7-25.3-9.7c-6.9,0-13.8,1.8-19.8,5.3
	c-19,11.2-25.4,35.7-14.2,54.7c3.4,5.9,8.3,10.8,14.2,14.2c6,3.5,12.8,5.4,19.8,5.3c4.5,0,9-0.6,13.2-2c3.6-1.1,6.9-2.8,9.9-4.9
	c2.6-1.9,4.9-4.2,6.8-6.7c1.7-2.2,3.2-4.6,4.3-7.1c0.8-2,1.5-4.2,1.9-6.4H63.6V91h60.1C124.4,94.4,124.7,97.9,124.7,101.5
	L124.7,101.5z M200,91v18h-18.1v18h-18.2v-18h-18.1V91h18.1V73h18.2v18H200z"/>
</svg>
