<svg id="圖層_1" data-name="圖層 1" xmlns="http://www.w3.org/2000/svg" viewBox="0 0 200 200"><defs><style>.cls-1{fill:#fff;}</style></defs><title>google</title><path class="cls-1" d="M124.71,91.64c0,11.9-2.5,22.5-7.6,31.8a53.73,53.73,0,0,1-21.5,21.8c-9.3,5.2-20,7.9-32,7.9a63.39,63.39,0,0,1-24.7-5,63,63,0,0,1-20.3-13.4A63.79,63.79,0,0,1,5,114.64a62.24,62.24,0,0,1,0-49,63.86,63.86,0,0,1,58.6-38.5c16.5,0,30.8,5.5,42.6,16.5L89,60c-6.8-6.5-15.2-9.7-25.3-9.7a39.43,39.43,0,0,0-19.8,5.3,40,40,0,0,0-14.2,54.7,38.68,38.68,0,0,0,14.2,14.2,38.18,38.18,0,0,0,19.8,5.3,41.84,41.84,0,0,0,13.2-2,35.21,35.21,0,0,0,9.9-4.9,33.24,33.24,0,0,0,6.8-6.7,34.47,34.47,0,0,0,4.3-7.1,33.82,33.82,0,0,0,1.9-6.4H63.61V81.14h60.1a51.94,51.94,0,0,1,1,10.5ZM200,81.14v18h-18.1v18h-18.2v-18h-18.1v-18h18.1v-18h18.2v18Z"/></svg>