<svg id="圖層_1" data-name="圖層 1" xmlns="http://www.w3.org/2000/svg" viewBox="0 0 200 200"><defs><style>.cls-1{fill:none;stroke:#8e8e8e;stroke-linecap:round;stroke-miterlimit:10;stroke-width:10px;}.cls-2{fill:#8e8e8e;}</style></defs><title>Member_pic2_noactive 複本</title><path class="cls-1" d="M100.42,186.82c18.58,0,33.55,1.05,44.74-5.78,21.25-13,28.89-40.9,21.72-64C158,88.18,137.29,75.59,130,71.93a11.42,11.42,0,0,0-5.14-1.2H75.17A11.42,11.42,0,0,0,70,71.93C62.71,75.59,42,88.18,33.12,117c-6.82,22-.24,48.85,18.71,62.07,11.46,8,27.46,7.75,47.75,7.75Z"/><path class="cls-1" d="M83.1,53.34H115a14,14,0,0,0,9.8-4c7.28-7.13,16.89-18.16,14.22-28-5.15-19-32,0-37.86,5S82.5,19.72,73.41,18c-12-2.27-19.35,7.57-11.78,18.51A69.25,69.25,0,0,0,74.26,50.19,13.88,13.88,0,0,0,83.1,53.34Z"/><path class="cls-2" d="M117.19,140.61c0-9.08-9.08-12.33-16.22-14.92-8.43-2.6-11.67-4.54-11.67-9.08,0-5.84,4.54-8.43,9.08-9.08H101c4.54,0,9.08,1.94,10.38,6.48a3.08,3.08,0,0,0,5.84-1.94c-2-7.14-7.78-10.38-13.62-11V95.85a3.25,3.25,0,0,0-6.49,0v5.84c-8.43,1.3-14.27,7.78-14.27,14.92,0,9.73,9.08,13,16.22,14.92,7.78,2.59,11.67,4.54,11.67,8.43,0,5.19-4.54,9.08-9.08,9.73s-10.38,0-12.32-5.84c-.65-1.95-2.6-2.59-4.54-1.95s-2.6,2.6-2,4.54c2.6,6.49,8.43,9.09,13.62,9.73V162a3.25,3.25,0,1,0,6.49,0v-6.48c7.13-.65,14.27-5.84,14.27-14.92Z"/></svg>