<?xml version="1.0" encoding="utf-8"?>
<!-- Generator: Adobe Illustrator 23.0.6, SVG Export Plug-In . SVG Version: 6.00 Build 0)  -->
<svg version="1.1" id="圖層_1" xmlns="http://www.w3.org/2000/svg" xmlns:xlink="http://www.w3.org/1999/xlink" x="0px" y="0px"
	 viewBox="0 0 200 200" style="enable-background:new 0 0 200 200;" xml:space="preserve">
<style type="text/css">
	.st0{fill:#FFFFFF;}
</style>
<path class="st0" d="M161.1,93.3c-1.3,0-2.4,0.5-3.2,1.3c-0.8,0.8-1.3,1.9-1.3,3.2V140c0,1.2,0.5,2.3,1.4,3.2h0l0,0
	c0.9,0.8,2,1.3,3.2,1.3h12.5c1.2,0,2.4-0.5,3.2-1.3l0,0l0,0c0.8-0.8,1.3-1.9,1.3-3.1V97.8c0-1.1-0.4-2.2-1.2-3l-0.2-0.2
	c-0.8-0.8-2-1.3-3.2-1.3C169.4,93.3,165.6,93.3,161.1,93.3L161.1,93.3z M112,157.7c-0.2-0.1-0.3-0.2-0.5-0.3c-1.7-0.9-3.6-1-5.4-0.6
	c-1.8,0.5-3.5,1.6-4.5,3.4h0c-0.6,1-0.9,2.2-1,3.4v0.3c0,0.6,0.1,1.2,0.3,1.7c0.5,1.7,1.6,3.2,3.2,4.3c0.2,0.1,0.4,0.2,0.6,0.3
	c1.7,0.9,3.6,1,5.4,0.6c1.8-0.5,3.4-1.6,4.4-3.2c0.1-0.2,0.2-0.3,0.3-0.5c0.9-1.7,1-3.5,0.6-5.2C114.8,160.3,113.7,158.7,112,157.7
	L112,157.7z M116.4,149.9c4,2.2,6.6,5.8,7.7,9.8c1.1,4,0.6,8.4-1.7,12.3l0,0h0c-2.3,3.9-6,6.5-10.1,7.5c-4.1,1.1-8.6,0.6-12.6-1.6
	l-0.1-0.1c-3.8-2.2-6.4-5.7-7.6-9.5H62.7c-0.2,0-0.4,0-0.5,0c-10.2-0.3-24.6-3.2-35.1-9.8c-8.4-5.3-14.4-12.8-14.4-23.2V97.8
	c0-3.7,1.6-7.1,4-9.5c2.6-2.5,6.1-3.9,9.7-3.9h2c1.5-17,9.2-32.4,21-43.8c13.1-12.8,31.2-20.7,51.3-20.7s38.2,7.9,51.3,20.7
	c11.7,11.4,19.4,26.7,20.9,43.8h0.9c3.8,0,7.2,1.5,9.7,4c0.1,0.1,0.2,0.2,0.3,0.3c2.3,2.4,3.8,5.7,3.8,9.2V140c0,3.7-1.6,7-4.1,9.5
	l0,0c-2.5,2.4-6,4-9.7,4h-12.5c-3.8,0-7.2-1.5-9.7-4v0c-2.5-2.4-4.1-5.8-4.1-9.5V97.8c0-3.7,1.6-7.1,4-9.5c2.6-2.5,6.1-3.9,9.7-3.9
	h2.5c-1.5-14.5-8.2-27.6-18.2-37.4c-11.5-11.2-27.3-18.1-44.8-18.1c-17.5,0-33.3,6.9-44.8,18.1c-10,9.8-16.7,22.9-18.2,37.4h1.3
	c3.8,0,7.2,1.5,9.7,4c0.1,0.1,0.2,0.2,0.3,0.3c2.3,2.4,3.8,5.7,3.8,9.2v38.1c0,2.5-2.1,4.5-4.6,4.5c-2.5,0-4.6-2-4.6-4.5V97.8
	c0-1.1-0.5-2.2-1.2-3l-0.2-0.2c-0.8-0.8-2-1.3-3.2-1.3H26.4c-1.3,0-2.4,0.5-3.2,1.3c-0.8,0.8-1.3,1.9-1.3,3.2v37.6
	c0,6.8,4.3,11.9,10.2,15.6c9,5.6,21.5,8.1,30.4,8.4l0.3,0h29.5c0.4-1.2,0.9-2.4,1.6-3.6v0c2.3-3.9,6-6.5,10.1-7.6
	C107.9,147.2,112.4,147.6,116.4,149.9L116.4,149.9L116.4,149.9L116.4,149.9z"/>
</svg>
